# xmcd
#
# Track frame offsets: 
#        183
#        22688
#        39128
#        59693
#        76865
#        89648
#        105575
#        125468
#        145200
#        166940
#        176693
#
# Disc length: 2587 seconds
#
# Revision: 1
# Processed by: cddbd v1.5.2PL0 Copyright (c) Steve Scherf et al.
# Submitted via: ExactAudioCopy v0.99pb4
#
DISCID=840a190b
DTITLE=Lilla - Mámor
DYEAR=1992
DGENRE=Pop
TTITLE0=Maradunk a Duna partján
TTITLE1=Viva Espagna
TTITLE2=Közel a határ
TTITLE3=Köszönöm szépen, jól vagyok
TTITLE4=Ködpuha zuhanás
TTITLE5=Hova menekülnél
TTITLE6=Nincs vége még
TTITLE7=Éjszakai repülés
TTITLE8=Engem többé ne várj
TTITLE9=Mámor
TTITLE10=Hálaének
EXTD=
EXTT0=
EXTT1=
EXTT2=
EXTT3=
EXTT4=
EXTT5=
EXTT6=
EXTT7=
EXTT8=
EXTT9=
EXTT10=
PLAYORDER=
